:SAMPLES-PER-SECOND 30
:FULLY-SPECIFIED
:DEGREES
386
root  61.0935 37.818 5.67549 55.9586 80.9674 63.766
RightUpLeg  -8.69848 3.04203 -11.578
RightLeg  66.6879 3.25119 7.64222
RightFoot  2.0766 -1.21832 10.4754
RightToes  -1.74624e-010 0 -3.6325e-017
Spine  7.20565 1.48515 -4.43371
Spine1  6.52141 2.28114 -8.0836
HEad  -17.7262 1.9339 -3.92061
LeftShoulder1  -0.827266 5.44039 -36.4856
LeftArm  0.94589 -5.68046 -38.7653
LeftForeArm  38.4777 -6.97076 -10.7855
LeftHand  -0.0429803 7.82581 0.0512367
RightShoulder  -0.985518 -6.15112 30.6564
RightArm  14.9454 0.858936 50.3619
RightForeArm  30.2214 1.57719 8.12108
RightHand  0.0685097 1.66393 0.97461
LeftUpLeg  -9.03343 5.2566 -10.5492
LeftLeg  21.2267 4.13453 1.23159
LeftFoot  -4.03837 -0.365298 6.09669
LeftToes  -3.96543e-010 8.93632e-011 -2.58531e-011
387
root  62.0853 38.0593 5.5445 58.9574 81.8625 66.8499
RightUpLeg  -12.3829 2.28521 -10.9925
RightLeg  65.164 2.69024 5.7637
RightFoot  2.06527 -1.06468 9.1572
RightToes  -1.74624e-010 0 -3.6325e-017
Spine  7.12445 0.852452 -5.70583
Spine1  6.71261 1.04052 -5.45367
HEad  -18.0702 2.67826 -4.2665
LeftShoulder1  -0.826039 5.4316 -36.6087
LeftArm  1.00965 -10.6944 -40.2152
LeftForeArm  34.5412 -9.13824 -9.89956
LeftHand  -0.0237254 6.87174 0.895572
RightShoulder  -1.02665 -6.27192 30.5317
RightArm  15.6749 -4.21702 46.0382
RightForeArm  24.2217 5.39338 7.92297
RightHand  0.0663844 3.81436 0.580452
LeftUpLeg  -6.28159 4.14849 -10.1656
LeftLeg  19.4577 4.48259 0.980035
LeftFoot  -4.95871 -0.311341 6.11107
LeftToes  -3.96543e-010 8.93632e-011 -2.58531e-011
388
root  63.0841 38.2903 5.4379 61.898 82.7739 69.483
RightUpLeg  -15.4826 1.91413 -10.0671
RightLeg  60.4267 2.48928 4.28004
RightFoot  1.53216 -0.844786 7.57425
RightToes  -1.74624e-010 0 -3.6325e-017
Spine  6.63129 0.115158 -6.28883
Spine1  6.7351 -0.0173327 -3.68355
HEad  -18.1254 3.43645 -4.3718
LeftShoulder1  -0.820346 5.42743 -36.4126
LeftArm  2.62049 -14.3643 -41.3342
LeftForeArm  28.2836 -13.2896 -8.09774
LeftHand  -0.0238777 6.60827 1.32493
RightShoulder  -1.00492 -6.2489 30.0523
RightArm  17.2235 -9.07016 42.3694
RightForeArm  19.2214 9.40482 7.53584
RightHand  0.0468822 4.32971 0.274215
LeftUpLeg  -3.97107 4.06352 -9.52331
LeftLeg  17.7422 3.84236 0.37163
LeftFoot  -5.77219 -0.264404 6.15456
LeftToes  -3.96543e-010 8.93632e-011 -2.58531e-011
389
root  64.0232 38.4147 5.35668 64.6313 83.644 71.9336
RightUpLeg  -17.5675 1.93696 -9.03332
RightLeg  52.8547 2.3811 2.98751
RightFoot  0.496478 -0.795634 7.69753
RightToes  -1.74624e-010 0 -3.6325e-017
Spine  6.13653 -0.56467 -6.26753
Spine1  7.09116 -0.783404 -2.9934
HEad  -18.7709 3.105 -4.11126
LeftShoulder1  -0.794379 5.37929 -36.1302
LeftArm  6.02124 -18.3128 -41.8516
LeftForeArm  20.1461 -17.2841 -6.31036
LeftHand  -0.0143697 5.90491 2.92037
RightShoulder  -1.01398 -6.28198 29.9447
RightArm  19.3334 -12.5699 39.2552
RightForeArm  16.0914 12.0891 6.92872
RightHand  0.02272 3.77853 0.0313719
LeftUpLeg  -2.12568 4.51929 -8.69806
LeftLeg  16.8537 2.66589 -0.276346
LeftFoot  -6.90999 -0.211513 6.53355
LeftToes  -3.96543e-010 8.93632e-011 -2.58531e-011
390
root  64.9749 38.4856 5.28382 68.3017 84.1839 75.2125
RightUpLeg  -18.6061 2.34293 -8.39251
RightLeg  42.9988 2.60457 2.3263
RightFoot  0.282445 -0.804078 7.90094
RightToes  -1.74624e-010 0 -3.6325e-017
Spine  4.64741 -1.1759 -6.08165
Spine1  8.6385 -1.23687 -2.68085
HEad  -19.5125 2.92388 -3.40803
LeftShoulder1  -0.740005 5.26393 -35.8335
LeftArm  8.73995 -22.9786 -42.0958
LeftForeArm  15.2143 -20.4259 -4.91286
LeftHand  -0.0123532 6.20478 2.97521
RightShoulder  -1.02819 -6.31253 30.0514
RightArm  18.2958 -14.8454 37.1474
RightForeArm  15.7244 12.6287 6.32619
RightHand  0.0124756 4.04652 -0.118059
LeftUpLeg  -0.348856 4.67787 -8.34152
LeftLeg  15.5827 2.1738 -0.549392
LeftFoot  -8.04696 -0.145783 6.74215
LeftToes  -3.96543e-010 8.93632e-011 -2.58531e-011
391
root  65.9262 38.4776 5.22894 72.8528 84.1078 79.6232
RightUpLeg  -18.7026 2.85333 -8.42656
RightLeg  32.2947 2.97849 1.76624
RightFoot  0.134083 -0.852546 8.51616
RightToes  -1.74624e-010 0 -3.6325e-017
Spine  4.12453 -1.46618 -6.22738
Spine1  8.91627 -1.4315 -2.57053
HEad  -19.2768 1.74331 -2.78715
LeftShoulder1  -0.7126 5.20565 -35.6654
LeftArm  9.9281 -27.0211 -42.1452
LeftForeArm  13.5767 -22.768 -4.38799
LeftHand  -0.0357621 5.03682 4.70408
RightShoulder  -0.949861 -6.1455 29.3925
RightArm  15.3777 -17.386 36.1382
RightForeArm  17.5783 11.555 5.76978
RightHand  0.0820893 4.03139 0.737638
LeftUpLeg  1.2322 4.93347 -8.45469
LeftLeg  15.4752 1.53923 -0.81855
LeftFoot  -9.2588 -0.0712045 7.03026
LeftToes  -3.96543e-010 8.93632e-011 -2.58531e-011
392
root  66.8726 38.3845 5.16395 82.9787 83.8108 88.6913
RightUpLeg  -19.4925 2.46543 -9.17482
RightLeg  22.1713 3.87156 1.65433
RightFoot  -0.470666 -1.0436 10.8948
RightToes  -1.74624e-010 0 -3.6325e-017
Spine  2.57259 -2.01053 -6.67447
Spine1  9.53 -1.82075 -2.34739
HEad  -20.0043 2.06056 -2.64177
LeftShoulder1  -0.68509 5.15214 -35.369
LeftArm  9.47883 -30.0764 -42.0211
LeftForeArm  14.6282 -25.5689 -4.67923
LeftHand  -0.0489766 4.72062 4.9615
RightShoulder  -0.943204 -6.14442 29.1515
RightArm  12.2179 -18.314 35.543
RightForeArm  18.5258 8.87964 5.21471
RightHand  0.0803774 3.30939 0.843631
LeftUpLeg  1.54358 4.75073 -9.04612
LeftLeg  15.7865 0.830874 -0.992408
LeftFoot  -10.7989 0.0288588 7.29882
LeftToes  -3.96543e-010 8.93632e-011 -2.58531e-011
393
root  67.8619 38.3467 5.11142 81.2891 83.4607 86.8213
RightUpLeg  -19.2785 3.24629 -9.09769
RightLeg  12.9921 5.84747 0.723885
RightFoot  0.608835 -1.04982 10.0435
RightToes  -1.74624e-010 0 -3.6325e-017
Spine  2.17081 -1.89115 -5.94527
Spine1  9.71597 -1.42505 -2.79363
HEad  -19.9482 1.53285 -2.52695
LeftShoulder1  -0.6902 5.17282 -35.1608
LeftArm  7.66028 -31.8696 -42.224
LeftForeArm  17.6271 -28.3433 -5.16634
LeftHand  -0.0621235 4.36193 4.58382
RightShoulder  -0.962132 -6.1949 29.1905
RightArm  9.97017 -18.8568 35.346
RightForeArm  18.9745 5.97564 4.35362
RightHand  0.0872598 2.42471 1.09888
LeftUpLeg  3.45689 4.91 -9.27493
LeftLeg  14.9496 0.889382 -1.17452
LeftFoot  -12.2128 0.125524 6.75526
LeftToes  -3.96543e-010 8.93632e-011 -2.58531e-011
394
root  68.8645 38.2754 5.05009 85.4496 83.1412 90.623
RightUpLeg  -18.7289 -1.06835 -7.14381
RightLeg  4.98668 14.5662 -1.78746
RightFoot  1.91991 -1.14494 9.93555
RightToes  -1.74624e-010 0 -3.6325e-017
Spine  1.71599 -1.95587 -5.22974
Spine1  9.79139 -1.35073 -2.9628
HEad  -20.1483 1.38181 -2.80173
LeftShoulder1  -0.664711 5.11957 -34.9552
LeftArm  9.51206 -33.388 -42.1166
LeftForeArm  15.5886 -30.2094 -5.72349
LeftHand  -0.0951663 3.85501 6.06631
RightShoulder  -0.976418 -6.23791 29.1544
RightArm  8.33736 -19.4613 35.3618
RightForeArm  17.8841 4.06778 3.65336
RightHand  0.0283066 2.0446 0.281754
LeftUpLeg  5.11851 4.83826 -9.63771
LeftLeg  14.2713 0.448949 -1.28432
LeftFoot  -13.34 0.199519 6.80424
LeftToes  -3.96543e-010 8.93632e-011 -2.58531e-011
395
root  69.916 38.1059 5.00128 88.4759 82.926 94.0632
RightUpLeg  -18.0119 -3.8076 -5.75896
RightLeg  0.854695 22.7591 -3.59264
RightFoot  1.39872 -1.12368 10.1426
RightToes  -1.74624e-010 0 -3.6325e-017
Spine  1.866 -1.96833 -4.62705
Spine1  10.1927 -1.4029 -2.85692
HEad  -20.3583 1.4495 -3.595
LeftShoulder1  -0.656607 5.09979 -34.9556
LeftArm  8.34826 -32.9228 -42.5765
LeftForeArm  17.3144 -32.6955 -6.23711
LeftHand  -0.0996051 3.76135 5.98963
RightShoulder  -0.958794 -6.19852 29.0174
RightArm  7.99867 -19.2205 35.424
RightForeArm  17.2531 3.46365 3.50875
RightHand  0.0573399 1.22381 0.888525
LeftUpLeg  7.28947 5.10306 -9.80166
LeftLeg  14.5832 -0.0543647 -1.1838
LeftFoot  -15.1314 0.31792 6.85514
LeftToes  -3.96543e-010 8.93632e-011 -2.58531e-011
396
root  70.9628 37.894 4.9903 94.4127 82.8842 100.278
RightUpLeg  -18.3691 -2.15778 -6.16513
RightLeg  3.64092 23.861 -2.31275
RightFoot  1.10768 -1.23834 11.3365
RightToes  -1.74624e-010 0 -3.6325e-017
Spine  2.33199 -2.14384 -4.55852
Spine1  9.80546 -1.91013 -1.80536
HEad  -20.3196 2.52844 -4.55297
LeftShoulder1  -0.626625 5.03512 -34.7428
LeftArm  8.29636 -31.034 -42.9638
LeftForeArm  17.9827 -34.5765 -6.68958
LeftHand  -0.110405 3.54962 6.05841
RightShoulder  -1.02565 -6.36356 29.3206
RightArm  8.37866 -18.6965 34.9006
RightForeArm  17.0136 4.20299 3.61964
RightHand  0.0603287 1.49144 0.890209
LeftUpLeg  9.03928 4.78849 -10.0466
LeftLeg  15.2831 -0.272911 -0.469896
LeftFoot  -17.2442 0.439393 6.51665
LeftToes  -3.96543e-010 8.93632e-011 -2.58531e-011
397
root  72.0542 37.6667 4.99166 103.4 82.7872 109.036
RightUpLeg  -19.1305 1.90207 -7.47337
RightLeg  8.84239 18.9423 -0.0313771
RightFoot  4.26337 -1.46105 10.9898
RightToes  -1.74624e-010 0 -3.6325e-017
Spine  2.14163 -2.33453 -3.92354
Spine1  9.79928 -2.26981 -1.1637
HEad  -20.5711 2.69349 -4.90392
LeftShoulder1  -0.601717 4.97476 -34.731
LeftArm  8.75573 -28.3794 -43.4739
LeftForeArm  19.9677 -36.2802 -7.02938
LeftHand  -0.10936 3.37026 5.47746
RightShoulder  -1.07787 -6.4936 29.5217
RightArm  10.1029 -17.7891 34.844
RightForeArm  15.9831 5.12464 4.38316
RightHand  0.122764 2.68604 1.49192
LeftUpLeg  10.0666 3.49797 -10.3812
LeftLeg  16.5469 0.0111005 0.371812
LeftFoot  -19.3948 0.53066 5.875
LeftToes  -3.96543e-010 8.93632e-011 -2.58531e-011
